# This file uses centimeters as units for non-parametric coordinates.

mtllib person.mtl
g default
v -0.445820 1.526498 -0.005582
v -0.445820 0.004697 -0.005582
v 0.456518 1.526498 -0.005582
v 0.456518 0.004697 -0.005582
v -0.451169 1.526498 -0.000000
v -0.451169 0.004697 0.000000
v 0.451169 1.526498 -0.000000
v 0.451169 0.004697 0.000000
vt 0.000000 1.000000
vt 0.000000 0.000000
vt 1.000000 1.000000
vt 1.000000 0.000000
vt 0.000000 1.000000
vt 0.000000 0.000000
vt 1.000000 0.000000
vt 1.000000 1.000000
vn 0.000000 0.000000 -1.000000
vn 0.000000 0.000000 -1.000000
vn 0.000000 0.000000 -1.000000
vn 0.000000 0.000000 -1.000000
vn -0.000000 0.000000 1.000000
vn -0.000000 0.000000 1.000000
vn -0.000000 0.000000 1.000000
vn -0.000000 0.000000 1.000000
s off
g person
usemtl blinn1SG
f 1/1/1 3/3/2 4/4/3 2/2/4
f 5/5/5 6/6/6 8/7/7 7/8/8
